# xmcd
#
# Track frame offsets:
#	151
#	14757
#	25785
#	37980
#	50369
#	62781
#	75488
#	86954
#	99492
#	110110
#	122594
#	135775
#	147186
#	160183
#	173297
#	186857
#	200788
#	214319
#	227759
#	242011
#
# Disc length: 3406 seconds
#
# Revision: 0
# Processed by: cddbd v1.5.2PL0 Copyright (c) Steve Scherf et al.
# Submitted via: EasyCDDAExtractor 10.0.1.1
#
DISCID=0e0d4c14
DTITLE=Various Artist - Les plus grands airs de l''acordéon
DYEAR=2008
DGENRE=Musette
TTITLE0=Marcel Azola - Jalousie - 1952
TTITLE1=Jo Privat - Bogota - 1936
TTITLE2=Yvette Horner - Payote-  1950
TTITLE3=Emile Prud'Homme - Monsieur Bébert - 1937
TTITLE4=Jean Vaissade - Une java - 1939
TTITLE5=Marcel Azzola - Mama - 1952
TTITLE6=Fredo Gordini - Galopade - 1930
TTITLE7=Yvette Horner - Une petite valse - 1952
TTITLE8=Tony Murena - La Guigne - 1940
TTITLE9=Marcel Azzola - Je t'aimerai - 1952
TTITLE10=Emile Prud'Homme - C'est lui que mon coeur a choisi - 1939
TTITLE11=Gus Viseur - Swing valse - 1942
TTITLE12=Yvette Horner - Gatitos Negros - 1950
TTITLE13=Emile Vacher - Trotinette - 1930
TTITLE14=Jean Vaissade - La fille du Pescadou - 1937
TTITLE15=Marcel Azzola - La comparsita - 1952
TTITLE16=Tony Murena - Caprice - 1935
TTITLE17=Yvette Horner - Domino - 1952
TTITLE18=Médard Ferrero - Bohémienne - 1936
TTITLE19=Gus Viseur - Nuages - 1943
EXTD=
EXTT0=
EXTT1=
EXTT2=
EXTT3=
EXTT4=
EXTT5=
EXTT6=
EXTT7=
EXTT8=
EXTT9=
EXTT10=
EXTT11=
EXTT12=
EXTT13=
EXTT14=
EXTT15=
EXTT16=
EXTT17=
EXTT18=
EXTT19=
PLAYORDER=
